<svg width="17" height="17" viewBox="0 0 17 17" fill="none" xmlns="http://www.w3.org/2000/svg">
<path d="M16 2.66667L14.3333 8.5H4.65385M4.65385 8.5H4.64726M4.65385 8.5L5.16667 11.8333H15.1667M4.65385 8.5L3.5 1H1M11.8333 3.08333H9.75M9.75 3.08333H7.66667M9.75 3.08333V5.16667M9.75 3.08333V1M6 15.1667C6 15.6269 5.6269 16 5.16667 16C4.70643 16 4.33333 15.6269 4.33333 15.1667C4.33333 14.7064 4.70643 14.3333 5.16667 14.3333C5.6269 14.3333 6 14.7064 6 15.1667ZM15.1667 15.1667C15.1667 15.6269 14.7936 16 14.3333 16C13.8731 16 13.5 15.6269 13.5 15.1667C13.5 14.7064 13.8731 14.3333 14.3333 14.3333C14.7936 14.3333 15.1667 14.7064 15.1667 15.1667Z" stroke="#52CC9B" stroke-width="2" stroke-linecap="round" stroke-linejoin="round"/>
</svg>
